<?xml version="1.0" standalone="no"?>
<!DOCTYPE svg PUBLIC "-//W3C//DTD SVG 20010904//EN"
 "http://www.w3.org/TR/2001/REC-SVG-20010904/DTD/svg10.dtd">
<svg version="1.0" xmlns="http://www.w3.org/2000/svg"
 width="700.000000pt" height="700.000000pt" viewBox="0 0 700.000000 700.000000"
 preserveAspectRatio="xMidYMid meet">
<metadata>
Created by potrace 1.14, written by Peter Selinger 2001-2017
</metadata>
<g transform="translate(0.000000,700.000000) scale(0.100000,-0.100000)"
fill="#000000" stroke="none">
<path d="M3399 6286 c-94 -25 -191 -102 -234 -186 -12 -25 -60 -135 -105 -245
-45 -110 -90 -218 -100 -240 -10 -22 -109 -259 -220 -527 -193 -467 -204 -488
-229 -489 -39 -1 -107 -6 -191 -13 -41 -4 -104 -9 -140 -11 -86 -6 -186 -15
-230 -20 -19 -2 -78 -7 -130 -10 -52 -3 -111 -8 -130 -10 -19 -2 -73 -6 -120
-10 -47 -3 -105 -8 -130 -10 -25 -2 -81 -7 -125 -10 -44 -3 -100 -8 -125 -10
-25 -2 -79 -7 -120 -10 -178 -13 -221 -24 -294 -74 -135 -93 -198 -279 -146
-431 22 -67 53 -116 100 -160 27 -26 134 -118 210 -182 46 -38 155 -133 160
-138 3 -3 48 -41 100 -85 52 -44 102 -87 111 -95 8 -8 26 -24 40 -35 13 -11
150 -128 304 -259 154 -132 282 -241 284 -243 4 -3 -10 -78 -24 -133 -2 -8
-11 -44 -19 -80 -8 -36 -24 -101 -34 -145 -11 -44 -45 -188 -76 -320 -32 -132
-72 -303 -91 -380 -118 -482 -127 -528 -123 -605 9 -151 112 -283 261 -336 71
-25 188 -21 260 9 30 13 209 120 407 242 122 76 488 300 745 455 121 73 227
139 235 146 17 14 2 22 472 -265 86 -53 208 -127 270 -165 62 -38 235 -143
383 -234 149 -91 292 -174 319 -184 64 -25 174 -26 240 -3 154 53 255 181 264
335 3 62 -3 102 -33 225 -43 178 -55 231 -61 265 -3 14 -6 30 -9 37 -4 12 -68
277 -196 818 -38 159 -69 296 -68 305 0 8 227 209 505 445 277 237 517 441
532 454 15 12 49 42 76 65 130 109 173 165 200 256 39 132 2 274 -99 375 -27
28 -70 61 -95 73 -66 32 -103 37 -370 57 -41 4 -95 8 -120 10 -25 2 -79 6
-120 10 -153 12 -196 15 -255 20 -33 3 -85 7 -115 10 -30 2 -86 7 -125 10 -84
7 -142 11 -255 20 -47 3 -105 8 -130 10 -25 3 -81 7 -125 10 -89 6 -115 12
-115 25 0 8 -173 428 -532 1290 -82 196 -99 228 -149 278 -68 67 -151 103
-246 107 -43 2 -99 -2 -124 -9z"/>
</g>
</svg>
